<svg xmlns="http://www.w3.org/2000/svg" xmlns:xlink="http://www.w3.org/1999/xlink" width="1366" height="1523" viewBox="0 0 1366 1523">
  <defs>
    <filter id="box-shadow-4" x="76" y="170" width="1254" height="541" filterUnits="userSpaceOnUse">
      <feOffset dx="20" dy="20" input="SourceAlpha"/>
      <feGaussianBlur stdDeviation="30" result="blur"/>
      <feFlood flood-color="#cbcbcb"/>
      <feComposite operator="in" in2="blur"/>
      <feComposite in="SourceGraphic"/>
    </filter>
    <filter id="box-shadow-1" x="36" y="130" width="1254" height="541" filterUnits="userSpaceOnUse">
      <feOffset dx="-20" dy="-20" input="SourceAlpha"/>
      <feGaussianBlur stdDeviation="30" result="blur-2"/>
      <feFlood flood-color="#fff"/>
      <feComposite operator="in" in2="blur-2"/>
      <feComposite in="SourceGraphic"/>
    </filter>
    <clipPath id="clip-path">
      <rect id="Rectangle_36" data-name="Rectangle 36" width="120" height="120" transform="translate(179 305)" fill="#fff" stroke="#707070" stroke-width="1"/>
    </clipPath>
    <clipPath id="clip-path-2">
      <rect id="Rectangle_37" data-name="Rectangle 37" width="120" height="120" transform="translate(523 322)" fill="#fff" stroke="#707070" stroke-width="1"/>
    </clipPath>
    <clipPath id="clip-path-3">
      <rect id="Rectangle_37-2" data-name="Rectangle 37" width="120" height="120" transform="translate(424 339)" fill="#fff" stroke="#707070" stroke-width="1"/>
    </clipPath>
    <filter id="Rectangle_19" x="528.5" y="92.5" width="209" height="82" filterUnits="userSpaceOnUse">
      <feOffset dx="3" dy="3" input="SourceAlpha"/>
      <feGaussianBlur stdDeviation="7.5" result="blur-3"/>
      <feFlood flood-color="#dfc2c2"/>
      <feComposite operator="in" in2="blur-3"/>
      <feComposite in="SourceGraphic"/>
    </filter>
    <filter id="Rectangle_20" x="522.5" y="86.5" width="209" height="82" filterUnits="userSpaceOnUse">
      <feOffset dx="-3" dy="-3" input="SourceAlpha"/>
      <feGaussianBlur stdDeviation="7.5" result="blur-4"/>
      <feFlood flood-color="#fff"/>
      <feComposite operator="in" in2="blur-4"/>
      <feComposite in="SourceGraphic"/>
    </filter>
    <clipPath id="clip-Symptons_of_disease">
      <rect width="1366" height="1523"/>
    </clipPath>
  </defs>
  <g id="Symptons_of_disease" data-name="Symptons of disease" clip-path="url(#clip-Symptons_of_disease)">
    <rect width="1366" height="1523" fill="#efefef"/>
    <g id="footer" transform="translate(0 227)">
      <rect id="style" width="1366" height="76" transform="translate(0 1220)" fill="none"/>
      <text id="A_project_by_59Th2_Team_ThuyLoi_University" data-name="A project by 59Th2 Team  |  ThuyLoi University" transform="translate(515 1262)" fill="#888181" font-size="16" font-family="SegoeUI-Semibold, Segoe UI" font-weight="600"><tspan x="0" y="0" xml:space="preserve">A project by 59Th2 Team  |  ThuyLoi University</tspan></text>
    </g>
    <text id="Nguồn_thông_tin:_Shayanne_Gal_Business_Insider." data-name="Nguồn thông tin: Shayanne Gal/Business Insider." transform="translate(512 1355)" fill="#707070" font-size="16" font-family="SegoeUI, Segoe UI"><tspan x="0" y="0">Nguồn thông tin: Shayanne Gal/Business Insider.</tspan></text>
    <g id="table" transform="translate(174 135)">
      <g id="style-2" data-name="style" transform="translate(100 899)" fill="#efefef" stroke="rgba(121,117,225,0.7)" stroke-width="1">
        <rect width="818" height="260" rx="20" stroke="none"/>
        <rect x="0.5" y="0.5" width="817" height="259" rx="19.5" fill="none"/>
      </g>
      <g id="row" transform="translate(0 50)">
        <rect id="style-3" data-name="style" width="818" height="50" transform="translate(100 959)" fill="rgba(255,255,255,0.3)"/>
        <text id="Đôi_khi" data-name="Đôi khi" transform="translate(816 993)" fill="#0870c4" font-size="18" font-family="SegoeUI-Semibold, Segoe UI" font-weight="600"><tspan x="0" y="0">Đôi khi</tspan></text>
        <text id="Phổ_biến" data-name="Phổ biến" transform="translate(703 991)" fill="#0870c4" font-size="18" font-family="SegoeUI-Semibold, Segoe UI" font-weight="600"><tspan x="0" y="0">Phổ biến</tspan></text>
        <text id="Hiếm" transform="translate(514 993)" fill="#0870c4" font-size="18" font-family="SegoeUI-Semibold, Segoe UI" font-weight="600"><tspan x="0" y="0">Hiếm</tspan></text>
        <text id="Phổ_biến-2" data-name="Phổ biến" transform="translate(308 993)" fill="#f14040" font-size="18" font-family="SegoeUI-Semibold, Segoe UI" font-weight="600"><tspan x="0" y="0">Phổ biến</tspan></text>
        <text id="Sốt" transform="translate(164 991)" fill="#0870c4" font-size="18" font-family="SegoeUI-Semibold, Segoe UI" font-weight="600"><tspan x="0" y="0">Sốt</tspan></text>
      </g>
      <g id="row-2" data-name="row">
        <rect id="style-4" data-name="style" width="818" height="50" transform="translate(100 959)" fill="none"/>
        <text id="Đôi_khi-2" data-name="Đôi khi" transform="translate(816 993)" fill="#0870c4" font-size="18" font-family="SegoeUI-Semibold, Segoe UI" font-weight="600"><tspan x="0" y="0">Đôi khi</tspan></text>
        <text id="Phổ_biến-3" data-name="Phổ biến" transform="translate(703 991)" fill="#0870c4" font-size="18" font-family="SegoeUI-Semibold, Segoe UI" font-weight="600"><tspan x="0" y="0">Phổ biến</tspan></text>
        <text id="Hiếm-2" data-name="Hiếm" transform="translate(514 993)" fill="#0870c4" font-size="18" font-family="SegoeUI-Semibold, Segoe UI" font-weight="600"><tspan x="0" y="0">Hiếm</tspan></text>
        <text id="Phổ_biến-4" data-name="Phổ biến" transform="translate(308 993)" fill="#f14040" font-size="18" font-family="SegoeUI-Semibold, Segoe UI" font-weight="600"><tspan x="0" y="0">Phổ biến</tspan></text>
        <text id="Sốt-2" data-name="Sốt" transform="translate(164 991)" fill="#0870c4" font-size="18" font-family="SegoeUI-Semibold, Segoe UI" font-weight="600"><tspan x="0" y="0">Sốt</tspan></text>
      </g>
      <g id="thead">
        <path id="style-5" data-name="style" d="M20,0H798a20,20,0,0,1,20,20V60a0,0,0,0,1,0,0H0a0,0,0,0,1,0,0V20A20,20,0,0,1,20,0Z" transform="translate(100 899)" fill="rgba(255,255,255,0.3)"/>
        <text id="Dị_ứng" data-name="Dị ứng" transform="translate(819 937)" fill="#0870c4" font-size="18" font-family="SegoeUI-Semibold, Segoe UI" font-weight="600"><tspan x="0" y="0">Dị ứng</tspan></text>
        <text id="Cúm" transform="translate(715 937)" fill="#0870c4" font-size="18" font-family="SegoeUI-Semibold, Segoe UI" font-weight="600"><tspan x="0" y="0">Cúm</tspan></text>
        <text id="Cảm_lạnh_thông_thường" data-name="Cảm lạnh thông thường" transform="translate(452 937)" fill="#0870c4" font-size="18" font-family="SegoeUI-Semibold, Segoe UI" font-weight="600"><tspan x="0" y="0">Cảm lạnh thông thường</tspan></text>
        <text id="COVID-19" transform="translate(307 937)" fill="#f14040" font-size="18" font-family="SegoeUI-Semibold, Segoe UI" font-weight="600"><tspan x="0" y="0">COVID-19</tspan></text>
        <text id="Triệu_chứng" data-name="Triệu chứng" transform="translate(144 937)" fill="#0870c4" font-size="18" font-family="SegoeUI-Semibold, Segoe UI" font-weight="600"><tspan x="0" y="0">Triệu chứng</tspan></text>
      </g>
    </g>
    <text id="Bảng_so_sánh_triệu_chứng_của_COVID-19_với_các_bệnh_phổ_biến_khác_có_một_số_triệu_chứng_tương_tự" data-name="Bảng so sánh triệu chứng của COVID-19 với các bệnh phổ biến khác có một số triệu chứng tương tự" transform="translate(305 928)" fill="#5cadef" font-size="24" font-family="SegoeUI-Semibold, Segoe UI" font-weight="600"><tspan x="9.82" y="26">Bảng so sánh triệu chứng của COVID-19 với các bệnh phổ biến khác </tspan><tspan x="206.068" y="58">có một số triệu chứng tương tự</tspan></text>
    <g id="Group_9" data-name="Group 9" transform="translate(0 -1)">
      <text id="Các_triệu_chứng_này_có_thể_xuất_hiện_từ_02_đến_14_ngày_sau_khi_tiếp_xúc_nguồn_bệnh" data-name="Các triệu chứng này có thể xuất hiện từ 02 đến 14 ngày sau khi tiếp xúc nguồn bệnh" transform="translate(284 827)" fill="#416f94" font-size="20" font-family="SegoeUI-Semibold, Segoe UI" font-weight="600"><tspan x="0" y="0">Các triệu chứng này có thể xuất hiện từ </tspan><tspan y="0" font-size="28" text-decoration="underline">02</tspan><tspan y="0" xml:space="preserve"> đến </tspan><tspan y="0" font-size="28" text-decoration="underline">14 ngày</tspan><tspan y="0" xml:space="preserve"> sau khi tiếp xúc nguồn bệnh</tspan></text>
      <text id="Một_số_bệnh_nhân_khác_bị_đau_nhức_khó_chịu_trong_cơ_thể_nghẹt_mũi_sổ_mũi_đău_họng_hoặc_tiêu_chảy." data-name="Một số bệnh nhân khác bị đau nhức, khó chịu trong cơ thể, nghẹt mũi, sổ mũi, đău họng hoặc tiêu chảy." transform="translate(211 785)" fill="#416f94" font-size="20" font-family="SegoeUI-Semibold, Segoe UI" font-weight="600"><tspan x="0" y="0">Một số bệnh nhân khác bị đau nhức, khó chịu trong cơ thể, nghẹt mũi, sổ mũi, đău họng hoặc tiêu chảy.</tspan></text>
      <text id="Các_triệu_chứng_khác" data-name="Các triệu chứng khác" transform="translate(550 737)" fill="#5cadef" font-size="28" font-family="SegoeUI-Semibold, Segoe UI" font-weight="600"><tspan x="0" y="0">Các triệu chứng khác</tspan></text>
    </g>
    <g id="panel">
      <g id="neumorphism_panel" data-name="neumorphism panel" transform="translate(146 240)">
        <g transform="matrix(1, 0, 0, 1, -146, -240)" filter="url(#box-shadow-4)">
          <rect id="box-shadow-4-2" data-name="box-shadow-4" width="1074" height="361" rx="30" transform="translate(146 240)" fill="#fafafa"/>
        </g>
        <g transform="matrix(1, 0, 0, 1, -146, -240)" filter="url(#box-shadow-1)">
          <rect id="box-shadow-1-2" data-name="box-shadow-1" width="1074" height="361" rx="30" transform="translate(146 240)" fill="#efefef"/>
        </g>
      </g>
      <g id="Group_8" data-name="Group 8">
        <g id="Group_3" data-name="Group 3" transform="translate(56 -3)">
          <text id="Ho_khan" data-name="Ho khan" transform="translate(180 527)" fill="#416f94" font-size="24" font-family="Muli-Bold, Muli" font-weight="700"><tspan x="0" y="0">Ho khan</tspan></text>
          <g id="Mask_Group_2" data-name="Mask Group 2" transform="translate(-15 44)" clip-path="url(#clip-path)">
            <g id="_22-Cough" data-name="22-Cough" transform="translate(185.902 306.887)">
              <line id="Line_1" data-name="Line 1" x1="16.981" y2="5.66" transform="translate(0 86.791)" fill="none" stroke="#7975e1" stroke-linejoin="round" stroke-width="5.719"/>
              <line id="Line_2" data-name="Line 2" x1="16.981" y2="5.66" transform="translate(0 99.999)" fill="none" stroke="#7975e1" stroke-linejoin="round" stroke-width="5.719"/>
              <line id="Line_3" data-name="Line 3" x1="7.547" y2="2.515" transform="translate(9.434 93.71)" fill="none" stroke="#7975e1" stroke-linejoin="round" stroke-width="5.719"/>
              <line id="Line_4" data-name="Line 4" x1="5.66" y2="1.887" transform="translate(20.754 90.565)" fill="none" stroke="#7975e1" stroke-linejoin="round" stroke-width="5.719"/>
              <line id="Line_5" data-name="Line 5" x1="7.547" y2="2.515" transform="translate(0 82.389)" fill="none" stroke="#7975e1" stroke-linejoin="round" stroke-width="5.719"/>
              <line id="Line_6" data-name="Line 6" x1="5.66" y2="1.887" transform="translate(11.321 79.244)" fill="none" stroke="#7975e1" stroke-linejoin="round" stroke-width="5.719"/>
              <path id="Path_2" data-name="Path 2" d="M137.25,98.074V88.641s5.66,0,5.66,3.774S137.25,98.074,137.25,98.074Z" transform="translate(-54.232 -32.038)" fill="none" stroke="#7975e1" stroke-linejoin="round" stroke-width="5.719"/>
              <path id="Path_3" data-name="Path 3" d="M45.75,33.048V31.161h0c0-15.63,13.275-28.3,29.649-28.3h17.79c19.649,0,35.579,15.205,35.579,33.962V51.915c0,5.66-2.63,18.034-9.434,24.528L116.381,79.4a15.688,15.688,0,0,0-4.594,11.092v1.049h-5.66" transform="translate(-23.109 -2.859)" fill="none" stroke="#7975e1" stroke-linejoin="round" stroke-width="5.719"/>
              <path id="Path_4" data-name="Path 4" d="M68.508,68.625,57.188,76.172l11.321,7.547" transform="translate(-26.999 -25.229)" fill="none" stroke="#7975e1" stroke-linejoin="round" stroke-width="5.719"/>
              <path id="Path_5" data-name="Path 5" d="M99.844,160.067l16.981-5.66h5.66v16.981H77.2a5.66,5.66,0,0,1,5.66-5.66h0l5.66-1.887" transform="translate(-33.807 -54.408)" fill="none" stroke="#7975e1" stroke-linejoin="round" stroke-width="5.719"/>
              <line id="Line_7" data-name="Line 7" y1="1.257" x2="3.774" transform="translate(58.49 106.917)" fill="none" stroke="#7975e1" stroke-linejoin="round" stroke-width="5.719"/>
              <path id="Path_6" data-name="Path 6" d="M102.236,110.756V88.115l7.736-3.692c2.868-1.849,3.585-4.294,3.585-7.628v-4.43a7.285,7.285,0,0,0-7.17-6.89H87.142c-13.656,0-26.415-28.3-37.735-28.3a12.887,12.887,0,0,1-7.547,7.547V65.473c0,2.83-4.245,8.845-6.368,11.675a5.862,5.862,0,0,0-1.179,3.519v.064a5.849,5.849,0,0,0,3.228,5.224l4.319,2.158A37.142,37.142,0,0,0,45,95.662h10.07a3.774,3.774,0,0,1,3.774,3.774h0l-8.715,3.534a28.362,28.362,0,0,0,18.149,9.456V125.85" transform="translate(-19.218 -14.531)" fill="none" stroke="#7975e1" stroke-linejoin="round" stroke-width="5.719"/>
            </g>
          </g>
        </g>
        <g id="Group_4" data-name="Group 4" transform="translate(35 -3)">
          <text id="Sốt-3" data-name="Sốt" transform="translate(470 527)" fill="#416f94" font-size="24" font-family="Muli-Bold, Muli" font-weight="700"><tspan x="0" y="0">Sốt</tspan></text>
          <g id="Mask_Group_3" data-name="Mask Group 3" transform="translate(-94 27)" clip-path="url(#clip-path-2)">
            <g id="_07-Fever" data-name="07-Fever" transform="translate(525.028 324.148)">
              <line id="Line_8" data-name="Line 8" x2="15.535" transform="translate(100.977 20.282)" fill="none" stroke="#7975e1" stroke-linejoin="round" stroke-width="4.587"/>
              <line id="Line_9" data-name="Line 9" x1="5.826" transform="translate(110.687 50.705)" fill="none" stroke="#7975e1" stroke-linejoin="round" stroke-width="4.587"/>
              <line id="Line_10" data-name="Line 10" x1="5.826" transform="translate(110.687 38.536)" fill="none" stroke="#7975e1" stroke-linejoin="round" stroke-width="4.587"/>
              <line id="Line_11" data-name="Line 11" x1="5.826" transform="translate(110.687 38.536)" fill="none" stroke="#7975e1" stroke-linejoin="round" stroke-width="4.587"/>
              <line id="Line_12" data-name="Line 12" x1="5.826" transform="translate(110.687 26.367)" fill="none" stroke="#7975e1" stroke-linejoin="round" stroke-width="4.587"/>
              <line id="Line_13" data-name="Line 13" x1="5.826" transform="translate(110.687 26.367)" fill="none" stroke="#7975e1" stroke-linejoin="round" stroke-width="4.587"/>
              <line id="Line_14" data-name="Line 14" x1="5.826" transform="translate(110.687 14.197)" fill="none" stroke="#7975e1" stroke-linejoin="round" stroke-width="4.587"/>
              <path id="Path_7" data-name="Path 7" d="M52.749,111.583s0-6.085,7.767-6.085,7.767,6.085,7.767,6.085Z" transform="translate(-10.028 -14.229)" fill="none" stroke="#7975e1" stroke-linejoin="round" stroke-width="4.587"/>
              <path id="Path_8" data-name="Path 8" d="M40.947,128.432v8.113L13.761,142.63" transform="translate(-4.051 -16.881)" fill="none" stroke="#7975e1" stroke-linejoin="round" stroke-width="4.587"/>
              <path id="Path_9" data-name="Path 9" d="M105.163,141.834,77.977,135.75v-14.2" transform="translate(-13.895 -16.085)" fill="none" stroke="#7975e1" stroke-linejoin="round" stroke-width="4.587"/>
              <path id="Path_10" data-name="Path 10" d="M45.869,137.606s3.884,4.056,13.593,4.056,13.593-4.056,13.593-4.056" transform="translate(-8.973 -17.942)" fill="none" stroke="#7975e1" stroke-linejoin="round" stroke-width="4.587"/>
              <path id="Path_11" data-name="Path 11" d="M33.881,58.483l-5.826,5.071V73.694H24.171a5.959,5.959,0,0,0-5.826,6.085v2.028A14.208,14.208,0,0,0,28.055,96c2.864,13.22,14.211,22.531,27.186,22.31,12.975.221,24.322-9.09,27.186-22.31a14.208,14.208,0,0,0,9.709-14.2V79.779a5.959,5.959,0,0,0-5.826-6.085H82.427V65.581a15.448,15.448,0,0,1-5.826-5.77" transform="translate(-4.753 -8.792)" fill="none" stroke="#7975e1" stroke-linejoin="round" stroke-width="4.587"/>
              <path id="Path_12" data-name="Path 12" d="M15.887,81.487s-5.826-4.056-5.826-16.226,7.767-16.226,7.767-16.226A16.679,16.679,0,0,1,2.293,38.895,82.443,82.443,0,0,0,27.538,28.754c13.593-8.113,19.419-8.113,27.186-8.113,9.709,0,17.477,10.141,17.477,10.141s1.831-3.823,9.045-4.046C89.1,26.494,95.5,36.79,95.5,44.979V67.071A8.387,8.387,0,0,1,94.4,71.245l-4.719,8.214" transform="translate(-2.293 -4.415)" fill="none" stroke="#7975e1" stroke-linejoin="round" stroke-width="4.587"/>
              <path id="Path_13" data-name="Path 13" d="M63.865,2.293A5.581,5.581,0,0,1,65.807,6.35c0,3.886-3.884,4.225-3.884,8.113" transform="translate(-11.434 -2.293)" fill="none" stroke="#7975e1" stroke-linejoin="round" stroke-width="4.587"/>
              <path id="Path_14" data-name="Path 14" d="M82.212,2.293A5.581,5.581,0,0,1,84.154,6.35c0,3.886-3.884,4.225-3.884,8.113" transform="translate(-14.247 -2.293)" fill="none" stroke="#7975e1" stroke-linejoin="round" stroke-width="4.587"/>
              <path id="Path_15" data-name="Path 15" d="M45.517,2.293A5.581,5.581,0,0,1,47.459,6.35c0,3.886-3.884,4.225-3.884,8.113" transform="translate(-8.622 -2.293)" fill="none" stroke="#7975e1" stroke-linejoin="round" stroke-width="4.587"/>
              <path id="Path_16" data-name="Path 16" d="M86.208,77.913a25.69,25.69,0,0,1-5.2-.487" transform="translate(-14.359 -10.982)" fill="none" stroke="#7975e1" stroke-linejoin="round" stroke-width="4.587"/>
              <path id="Path_17" data-name="Path 17" d="M71.1,71.1a8.353,8.353,0,0,0,4.622,4.381" transform="translate(-12.84 -10.25)" fill="none" stroke="#7975e1" stroke-linejoin="round" stroke-width="4.587"/>
              <path id="Path_18" data-name="Path 18" d="M81.154,81.81c0,3.367-1.748,6.085-3.884,6.085s-3.884-2.718-3.884-6.085a6.4,6.4,0,0,1,2.68-5.76,16.451,16.451,0,0,0,3.767,1.217,7.708,7.708,0,0,1,1.32,4.543Z" transform="translate(-13.188 -10.823)" fill="none" stroke="#7975e1" stroke-linejoin="round" stroke-width="4.587"/>
              <path id="Path_19" data-name="Path 19" d="M41.9,77.426a25.69,25.69,0,0,1-5.2.487" transform="translate(-7.567 -10.982)" fill="none" stroke="#7975e1" stroke-linejoin="round" stroke-width="4.587"/>
              <path id="Path_20" data-name="Path 20" d="M47.291,75.477A8.353,8.353,0,0,0,51.912,71.1" transform="translate(-9.191 -10.25)" fill="none" stroke="#7975e1" stroke-linejoin="round" stroke-width="4.587"/>
              <path id="Path_21" data-name="Path 21" d="M49.049,81.81c0,3.367-1.748,6.085-3.884,6.085s-3.884-2.718-3.884-6.085a7.708,7.708,0,0,1,1.32-4.543,16.451,16.451,0,0,0,3.767-1.217,6.4,6.4,0,0,1,2.68,5.76Z" transform="translate(-8.269 -10.823)" fill="none" stroke="#7975e1" stroke-linejoin="round" stroke-width="4.587"/>
              <path id="Path_22" data-name="Path 22" d="M58.056,64.123a61.674,61.674,0,0,1,21.361,4.056V49.925a61.674,61.674,0,0,0-21.361-4.056,61.674,61.674,0,0,0-21.361,4.056V68.179a61.675,61.675,0,0,1,21.361-4.056Z" transform="translate(-7.567 -7.333)" fill="none" stroke="#7975e1" stroke-linejoin="round" stroke-width="4.587"/>
              <path id="Path_23" data-name="Path 23" d="M43.575,48.162V60.331A51.582,51.582,0,0,1,59.11,58.3a51.582,51.582,0,0,1,15.535,2.028V48.162" transform="translate(-8.622 -7.598)" fill="none" stroke="#7975e1" stroke-linejoin="round" stroke-width="4.587"/>
              <path id="Path_24" data-name="Path 24" d="M120.849,38.8V58.144a12.538,12.538,0,0,0-3.117,13.413,11.481,11.481,0,0,0,21.769,0,12.539,12.539,0,0,0-3.117-13.413V10.406a7.775,7.775,0,1,0-15.535,0V26.632" transform="translate(-19.872 -2.293)" fill="none" stroke="#7975e1" stroke-linejoin="round" stroke-width="4.587"/>
              <line id="Line_15" data-name="Line 15" y2="4.056" transform="translate(100.977 28.395)" fill="none" stroke="#7975e1" stroke-linejoin="round" stroke-width="4.587"/>
            </g>
          </g>
        </g>
        <g id="Group_6" data-name="Group 6" transform="translate(281 7)">
          <text id="Đau_họng" data-name="Đau họng" transform="translate(433 517)" fill="#416f94" font-size="24" font-family="Muli-Bold, Muli" font-weight="700"><tspan x="0" y="0">Đau họng</tspan></text>
          <g id="Mask_Group_4" data-name="Mask Group 4" transform="translate(5)" clip-path="url(#clip-path-3)">
            <g id="_11-Sore_throat" data-name="11-Sore throat" transform="translate(429.631 341.034)">
              <path id="Path_25" data-name="Path 25" d="M49.526,89.365v6.946a4.011,4.011,0,0,1-2.882,3.953L18.8,107.441c-5.068,1.308-8.645,6.215-8.643,11.859v8.654" transform="translate(-10.155 -2.02)" fill="none" stroke="#7975e1" stroke-linejoin="round" stroke-width="4.062"/>
              <line id="Line_16" data-name="Line 16" y2="12.186" transform="translate(61.868 81.252)" fill="none" stroke="#7975e1" stroke-linejoin="round" stroke-width="4.062"/>
              <path id="Path_26" data-name="Path 26" d="M99.052,127.955H95.3L82.179,120.57,69.871,107.309a3.064,3.064,0,0,1-.778-2.516,2.91,2.91,0,0,1,1.428-2.155h0a3.409,3.409,0,0,1,4.327.569l9.205,8.5-10.433-9.936a3.064,3.064,0,0,1-.778-2.516A2.91,2.91,0,0,1,74.271,97.1h0a3.409,3.409,0,0,1,4.327.569l9.205,9.976h.049l-10.4-11.325a3.205,3.205,0,0,1-.792-2.531,3.071,3.071,0,0,1,1.355-2.234h0a3.408,3.408,0,0,1,4.327.569l9.213,9.428-8.6-9.184a2.92,2.92,0,0,1-.728-2.448,2.753,2.753,0,0,1,1.442-2.043h0a3.438,3.438,0,0,1,4.381.563l11,11.081V93.427a4.094,4.094,0,0,1,3.75-4.062h0a4.094,4.094,0,0,1,3.75,4.062v14.217l3.75,5.539h0C110.3,121.342,106.583,127.955,99.052,127.955Z" transform="translate(-14.686 -2.02)" fill="none" stroke="#7975e1" stroke-linejoin="round" stroke-width="4.062"/>
              <path id="Path_27" data-name="Path 27" d="M35.934,38.589v8.124h-3.75a3.915,3.915,0,0,0-3.75,4.062v2.031c0,5.51,4.741,10.679,9.374,12.186C40.2,78.026,49.447,87.334,62.181,87.334s21.98-9.308,24.372-22.341c4.633-1.507,9.374-6.676,9.374-12.186V50.776a3.915,3.915,0,0,0-3.75-4.062h-3.75V38.589c-9.374,0-9.374-16.248-9.374-16.248S73.429,32.5,67.8,32.5l1.875-8.124s-9.374,14.217-22.5,14.217V26.4L35.934,36.558Z" transform="translate(-11.561 -2.02)" fill="none" stroke="#7975e1" stroke-linejoin="round" stroke-width="4.062"/>
              <path id="Path_28" data-name="Path 28" d="M94.677,54.838l5.855-7.921a8.558,8.558,0,0,0,1.644-5.078V24.372c0-12.186-9.374-16.248-15-16.248a7.945,7.945,0,0,0-7.5,4.062A21.585,21.585,0,0,0,60.931,2.031c-15,0-18.748,6.093-26.247,10.155s-22.5,6.093-22.5,6.093a16.091,16.091,0,0,0,15,10.155,22.616,22.616,0,0,0-7.5,16.248c0,10.155,9.374,14.217,9.374,14.217" transform="translate(-10.311 -2.02)" fill="none" stroke="#7975e1" stroke-linejoin="round" stroke-width="4.062"/>
              <path id="Path_29" data-name="Path 29" d="M56.869,79.21s0-10.155,7.5-10.155,7.5,10.155,7.5,10.155Z" transform="translate(-13.748 -2.02)" fill="none" stroke="#7975e1" stroke-linejoin="round" stroke-width="4.062"/>
              <path id="Path_30" data-name="Path 30" d="M69.055,36.558c0,4.491,4.192,8.124,9.374,8.124" transform="translate(-14.686 -2.02)" fill="none" stroke="#7975e1" stroke-linejoin="round" stroke-width="4.062"/>
              <path id="Path_31" data-name="Path 31" d="M60.15,36.558c0,4.491-4.192,8.124-9.374,8.124" transform="translate(-13.28 -2.02)" fill="none" stroke="#7975e1" stroke-linejoin="round" stroke-width="4.062"/>
              <path id="Path_32" data-name="Path 32" d="M84.366,46.714,73.117,52.807l11.249,4.062" transform="translate(-14.998 -2.02)" fill="none" stroke="#7975e1" stroke-linejoin="round" stroke-width="4.062"/>
              <path id="Path_33" data-name="Path 33" d="M44.683,46.714l11.249,6.093L44.683,56.869" transform="translate(-12.811 -2.02)" fill="none" stroke="#7975e1" stroke-linejoin="round" stroke-width="4.062"/>
              <path id="Path_34" data-name="Path 34" d="M113.737,113.737l13.124,12.186v2.031" transform="translate(-18.123 -2.02)" fill="none" stroke="#7975e1" stroke-linejoin="round" stroke-width="4.062"/>
              <path id="Path_35" data-name="Path 35" d="M50.776,99.52A14.712,14.712,0,0,0,63.9,107.644h3.75" transform="translate(-13.28 -2.02)" fill="none" stroke="#7975e1" stroke-linejoin="round" stroke-width="4.062"/>
              <path id="Path_36" data-name="Path 36" d="M26.4,67.024l7.5,6.093-3.75,4.062,7.5,6.093" transform="translate(-11.405 -2.02)" fill="none" stroke="#7975e1" stroke-linejoin="round" stroke-width="4.062"/>
              <path id="Path_37" data-name="Path 37" d="M14.217,81.241H25.466l-3.75,6.093H32.965" transform="translate(-10.468 -2.02)" fill="none" stroke="#7975e1" stroke-linejoin="round" stroke-width="4.062"/>
              <path id="Path_38" data-name="Path 38" d="M41.089,93.427H29.84l3.75,6.093H22.341" transform="translate(-11.093 -2.02)" fill="none" stroke="#7975e1" stroke-linejoin="round" stroke-width="4.062"/>
              <path id="Path_39" data-name="Path 39" d="M104.676,64.993l-7.5,6.093,3.75,4.062-7.5,6.093" transform="translate(-16.561 -2.02)" fill="none" stroke="#7975e1" stroke-linejoin="round" stroke-width="4.062"/>
              <path id="Path_40" data-name="Path 40" d="M116.237,79.21H104.988l3.75,6.093H97.489" transform="translate(-16.873 -2.02)" fill="none" stroke="#7975e1" stroke-linejoin="round" stroke-width="4.062"/>
            </g>
          </g>
        </g>
        <g id="Group_7" data-name="Group 7" transform="translate(601 7)">
          <text id="Khó_thở_các_trường_hợp_nghiêm_trọng_" data-name="Khó thở
(các trường hợp nghiêm trọng)" transform="translate(354 493)" fill="#416f94" font-size="24" font-family="Muli-Bold, Muli" font-weight="700"><tspan x="51.016" y="24">Khó thở</tspan><tspan font-size="16"><tspan x="4.676" y="46">(các trường hợp nghiêm </tspan><tspan x="72.036" y="66">trọng)</tspan></tspan></text>
          <g id="Mask_Group_5" data-name="Mask Group 5" transform="translate(-34)" clip-path="url(#clip-path-3)">
            <g id="_10-Shortness_of_breath" data-name="10-Shortness of breath" transform="translate(425.893 341.054)">
              <path id="Path_41" data-name="Path 41" d="M32.642,101.81l-13.85,3.567c-5.067,1.307-8.642,6.213-8.64,11.855v8.651" transform="translate(-2.652 -2.019)" fill="none" stroke="#7975e1" stroke-linejoin="round" stroke-width="4.061"/>
              <line id="Line_17" data-name="Line 17" y2="10.152" transform="translate(46.858 81.227)" fill="none" stroke="#7975e1" stroke-linejoin="round" stroke-width="4.061"/>
              <path id="Path_42" data-name="Path 42" d="M77.155,83.246v11A4.009,4.009,0,0,0,80.036,98.2l27.837,7.175c5.067,1.307,8.642,6.213,8.64,11.855v8.651" transform="translate(-7.806 -2.019)" fill="none" stroke="#7975e1" stroke-linejoin="round" stroke-width="4.061"/>
              <path id="Path_43" data-name="Path 43" d="M35.922,38.577V46.7H32.174a3.914,3.914,0,0,0-3.748,4.061v2.03c0,5.508,4.74,10.676,9.371,12.182C40.188,78,49.431,87.307,62.161,87.307S84.134,78,86.526,64.972C91.157,63.466,95.9,58.3,95.9,52.79V50.76A3.914,3.914,0,0,0,92.148,46.7H88.4V38.577c-9.371,0-9.371-16.243-9.371-16.243S73.406,32.486,67.784,32.486l1.874-8.122s-9.371,14.213-22.49,14.213V26.4L35.922,36.547Z" transform="translate(-4.058 -2.019)" fill="none" stroke="#7975e1" stroke-linejoin="round" stroke-width="4.061"/>
              <path id="Path_44" data-name="Path 44" d="M94.647,54.82,100.5,46.9a8.556,8.556,0,0,0,1.644-5.076V24.365c0-12.182-9.371-16.243-14.994-16.243a7.942,7.942,0,0,0-7.5,4.061A21.578,21.578,0,0,0,60.912,2.03c-14.994,0-18.742,6.091-26.239,10.152s-22.49,6.091-22.49,6.091A16.086,16.086,0,0,0,27.176,28.425a22.609,22.609,0,0,0-7.5,16.243c0,10.152,9.371,14.213,9.371,14.213" transform="translate(-2.809 -2.019)" fill="none" stroke="#7975e1" stroke-linejoin="round" stroke-width="4.061"/>
              <path id="Path_45" data-name="Path 45" d="M58.82,79.185a1.837,1.837,0,0,1-1.55-.789,2.183,2.183,0,0,1-.324-1.822,7.119,7.119,0,0,1,7.4-5.51,7.119,7.119,0,0,1,7.411,5.51,2.183,2.183,0,0,1-.324,1.822,1.837,1.837,0,0,1-1.55.789Z" transform="translate(-6.246 -2.019)" fill="none" stroke="#7975e1" stroke-linejoin="round" stroke-width="4.061"/>
              <path id="Path_46" data-name="Path 46" d="M53.625,127.914l-4.08-4.4A3.063,3.063,0,0,1,48.767,121a2.91,2.91,0,0,1,1.428-2.155h0a3.408,3.408,0,0,1,4.326.568l7.328,8.5-8.556-9.933a3.063,3.063,0,0,1-.778-2.515,2.91,2.91,0,0,1,1.428-2.155h0a3.408,3.408,0,0,1,4.326.568l9.2,9.973h.049l-10.4-11.321a3.2,3.2,0,0,1-.792-2.53,3.07,3.07,0,0,1,1.354-2.233h0a3.406,3.406,0,0,1,4.326.569l9.21,9.425-8.593-9.181a2.919,2.919,0,0,1-.728-2.447,2.752,2.752,0,0,1,1.442-2.042h0a3.436,3.436,0,0,1,4.38.562l11,11.078v-6.091a4.093,4.093,0,0,1,3.748-4.061h0a4.093,4.093,0,0,1,3.748,4.061v14.213l3.748,4.061" transform="translate(-5.621 -2.019)" fill="none" stroke="#7975e1" stroke-linejoin="round" stroke-width="4.061"/>
              <path id="Path_47" data-name="Path 47" d="M72.781,108.591l2.933-2.792a3.063,3.063,0,0,0,.778-2.515,2.91,2.91,0,0,0-1.428-2.155h0a3.157,3.157,0,0,0-4.157.39l-1.874,2.03" transform="translate(-7.182 -2.019)" fill="none" stroke="#7975e1" stroke-linejoin="round" stroke-width="4.061"/>
              <path id="Path_48" data-name="Path 48" d="M77.581,113.7l2.195-2.365a3.063,3.063,0,0,0,.778-2.515,2.909,2.909,0,0,0-1.428-2.155h0a3.408,3.408,0,0,0-4.326.569l-1.706,1.576" transform="translate(-7.494 -2.019)" fill="none" stroke="#7975e1" stroke-linejoin="round" stroke-width="4.061"/>
              <path id="Path_49" data-name="Path 49" d="M66.447,103.55l2.939-3.2a3.2,3.2,0,0,0,.792-2.53,3.07,3.07,0,0,0-1.354-2.233h0a3.406,3.406,0,0,0-4.326.569l-9.21,9.425L63.881,96.4a2.919,2.919,0,0,0,.728-2.447,2.752,2.752,0,0,0-1.442-2.042h0a3.436,3.436,0,0,0-4.38.562l-11,11.078V97.458A4.093,4.093,0,0,0,44.042,93.4h0a4.093,4.093,0,0,0-3.748,4.061v14.213l-3.748,6.091h0a17.113,17.113,0,0,0,2.789,10.152" transform="translate(-4.682 -2.019)" fill="none" stroke="#7975e1" stroke-linejoin="round" stroke-width="4.061"/>
              <line id="Line_18" data-name="Line 18" x1="13.119" y2="10.152" transform="translate(18.745 115.743)" fill="none" stroke="#7975e1" stroke-linejoin="round" stroke-width="4.061"/>
              <path id="Path_50" data-name="Path 50" d="M93.4,85.276l5.623,2.03c0,4.061.961,6.091,3.748,6.091a5.063,5.063,0,0,0,4.686-4.061,5.544,5.544,0,0,0,4.685-6.091,5.544,5.544,0,0,0-4.685-6.091,5.063,5.063,0,0,0-4.686-4.061c-2.787,0-3.748,2.03-3.748,6.091L93.4,81.215Z" transform="translate(-9.056 -2.019)" fill="none" stroke="#7975e1" stroke-linejoin="round" stroke-width="4.061"/>
              <path id="Path_51" data-name="Path 51" d="M107.61,64.972,113.233,67c0,4.061.961,6.091,3.748,6.091a5.063,5.063,0,0,0,4.686-4.061,5.544,5.544,0,0,0,4.686-6.091,5.544,5.544,0,0,0-4.686-6.091,5.063,5.063,0,0,0-4.686-4.061c-2.787,0-3.748,2.03-3.748,6.091l-5.623,2.03Z" transform="translate(-10.149 -2.019)" fill="none" stroke="#7975e1" stroke-linejoin="round" stroke-width="4.061"/>
              <path id="Path_52" data-name="Path 52" d="M84.339,46.7s-11.245,2.03-11.245,8.122a18.335,18.335,0,0,1,11.245,0" transform="translate(-7.494 -2.019)" fill="none" stroke="#7975e1" stroke-linejoin="round" stroke-width="4.061"/>
              <ellipse id="Ellipse_5" data-name="Ellipse 5" cx="3.748" cy="6.091" rx="3.748" ry="6.091" transform="translate(41.235 42.649)" fill="none" stroke="#7975e1" stroke-linejoin="round" stroke-width="4.061"/>
              <path id="Path_53" data-name="Path 53" d="M46.7,38.577s0,4.061,5.623,4.061a7.942,7.942,0,0,0,7.5-4.061" transform="translate(-5.464 -2.019)" fill="none" stroke="#7975e1" stroke-linejoin="round" stroke-width="4.061"/>
              <path id="Path_54" data-name="Path 54" d="M82.152,38.577s0,4.061-5.623,4.061a7.942,7.942,0,0,1-7.5-4.061" transform="translate(-7.182 -2.019)" fill="none" stroke="#7975e1" stroke-linejoin="round" stroke-width="4.061"/>
              <path id="Path_55" data-name="Path 55" d="M6.487,2.03H5.979a3.972,3.972,0,0,0-3.9,3.379,4.305,4.305,0,0,0,.831,3.3,3.638,3.638,0,0,0,2.866,1.441H17.024c0-4.107-4.82-6.629-8.078-7.732a7.623,7.623,0,0,0-2.459-.39Z" transform="translate(-2.027 -2.019)" fill="none" stroke="#7975e1" stroke-linejoin="round" stroke-width="4.061"/>
              <path id="Path_56" data-name="Path 56" d="M12.517,42.638l4.819-10.152c-8.018,0-10.308,4.12-10.97,6.5-.041.114-.066.236-.1.355v.012a5.021,5.021,0,0,0-.137.8,3.425,3.425,0,0,0-.041.457A3.722,3.722,0,0,0,9.3,44.668,3.6,3.6,0,0,0,12.517,42.638Z" transform="translate(-2.339 -2.019)" fill="none" stroke="#7975e1" stroke-linejoin="round" stroke-width="4.061"/>
            </g>
          </g>
        </g>
      </g>
      <text id="Các_triệu_chứng_phổ_biến_mà_bệnh_nhân_có_thể_gặp" data-name="Các triệu chứng phổ biến mà bệnh nhân có thể gặp" transform="translate(356 294)" fill="#003560" font-size="28" font-family="SegoeUI-Semibold, Segoe UI" font-weight="600"><tspan x="0" y="0">Các triệu chứng phổ biến mà bệnh nhân có thể gặp</tspan></text>
    </g>
    <g id="header">
      <rect id="Rectangle_18" data-name="Rectangle 18" width="1366" height="182" fill="none"/>
      <g id="NavBar" transform="translate(274.767 102)">
        <rect id="Rectangle_17" data-name="Rectangle 17" width="832" height="57" transform="translate(0.233)" fill="none"/>
        <g id="item" transform="translate(45 10)">
          <g id="style-6" data-name="style">
            <g id="Round_Rectangle" data-name="Round Rectangle" transform="translate(0.233)">
              <rect id="Rectangle_22" data-name="Rectangle 22" width="117" height="37" rx="8" fill="#efefef"/>
            </g>
          </g>
          <text id="Trang_chủ" data-name="Trang chủ" transform="translate(14.233 27)" fill="#7992a7" font-size="20" font-family="SegoeUI-Semibold, Segoe UI" font-weight="600"><tspan x="0" y="0">Trang chủ</tspan></text>
        </g>
        <g id="_.item" data-name=".item" transform="translate(172 10)">
          <g id="style-7" data-name="style">
            <g id="Round_Rectangle-2" data-name="Round Rectangle" transform="translate(0.233)">
              <rect id="Rectangle_22-2" data-name="Rectangle 22" width="91" height="37" rx="8" fill="#efefef"/>
            </g>
          </g>
          <text id="Tin_tức" data-name="Tin tức" transform="translate(14.233 27)" fill="#7992a7" font-size="20" font-family="SegoeUI-Semibold, Segoe UI" font-weight="600"><tspan x="0" y="0">Tin tức</tspan></text>
        </g>
        <g id="_.active" data-name=".active" transform="translate(273 10)">
          <g id="style-8" data-name="style">
            <g id="neumorphism_button" data-name="neumorphism button" transform="translate(0.233)">
              <g transform="matrix(1, 0, 0, 1, -548, -112)" filter="url(#Rectangle_19)">
                <rect id="Rectangle_19-2" data-name="Rectangle 19" width="164" height="37" rx="8" transform="translate(548 112)" fill="#efefef"/>
              </g>
              <g transform="matrix(1, 0, 0, 1, -548, -112)" filter="url(#Rectangle_20)">
                <rect id="Rectangle_20-2" data-name="Rectangle 20" width="164" height="37" rx="8" transform="translate(548 112)" fill="#efefef"/>
              </g>
            </g>
          </g>
          <text id="Biểu_hiện_bệnh" data-name="Biểu hiện bệnh" transform="translate(14.233 27)" fill="#7992a7" font-size="20" font-family="SegoeUI-Semibold, Segoe UI" font-weight="600"><tspan x="0" y="0">Biểu hiện bệnh</tspan></text>
        </g>
        <g id="item-2" data-name="item" transform="translate(447 10)">
          <g id="Round_Rectangle-3" data-name="Round Rectangle" transform="translate(0.233)">
            <rect id="Rectangle_22-3" data-name="Rectangle 22" width="191" height="37" rx="8" fill="#efefef"/>
          </g>
          <text id="Cách_phòng_tránh" data-name="Cách phòng tránh" transform="translate(14.233 27)" fill="#7992a7" font-size="20" font-family="SegoeUI-Semibold, Segoe UI" font-weight="600"><tspan x="0" y="0">Cách phòng tránh</tspan></text>
        </g>
        <g id="item-3" data-name="item" transform="translate(648 10)">
          <g id="style-9" data-name="style">
            <g id="Round_Rectangle-4" data-name="Round Rectangle" transform="translate(0.233)">
              <rect id="Rectangle_22-4" data-name="Rectangle 22" width="139" height="37" rx="8" fill="#efefef"/>
            </g>
          </g>
          <text id="Trắc_nghiệm" data-name="Trắc nghiệm" transform="translate(14.284 27)" fill="#7992a7" font-size="20" font-family="SegoeUI-Semibold, Segoe UI" font-weight="600"><tspan x="0" y="0">Trắc nghiệm</tspan></text>
        </g>
      </g>
      <g id="Title" transform="translate(495.863 42)">
        <text id="Coronavirus" transform="translate(218.137 31)" fill="#b77086" font-size="30" font-family="Muli-Bold, Muli" font-weight="700"><tspan x="0" y="0">Coronavirus</tspan></text>
        <path id="Path_1" data-name="Path 1" d="M19.884,1.869a.878.878,0,1,0,.244,1.739H21V5.4a16.434,16.434,0,0,0-4.646.9l-.326-.869.38-.163a.87.87,0,0,0-.489-1.657.84.84,0,0,0-.217.082L13.336,4.722a.876.876,0,0,0,.706,1.6l.38-.163.326.815a16.661,16.661,0,0,0-3.913,2.636L9.586,8.336l.625-.625a.874.874,0,1,0-1.223-1.25L6.461,8.988a.874.874,0,1,0,1.25,1.223l.625-.625,1.277,1.25a16.661,16.661,0,0,0-2.636,3.913l-.815-.326.163-.38a.868.868,0,0,0-.869-1.25,1.015,1.015,0,0,0-.109.027.868.868,0,0,0-.625.516L3.69,15.7a.87.87,0,1,0,1.576.706l.163-.38.869.326A16.435,16.435,0,0,0,5.4,21H3.608v-.869a.87.87,0,0,0-.951-.9,1.018,1.018,0,0,0-.109.027.871.871,0,0,0-.679.869v3.478a.87.87,0,1,0,1.739,0v-.869H5.4a16.436,16.436,0,0,0,.9,4.646l-.869.326-.163-.38a.864.864,0,1,0-1.576.707L4.722,30.4a.876.876,0,0,0,1.6-.707l-.163-.38.815-.326A16.668,16.668,0,0,0,9.586,32.9l-1.25,1.25-.625-.625a.875.875,0,1,0-1.25,1.223l2.527,2.527a.874.874,0,0,0,1.223-1.25L9.586,35.4l1.25-1.25a16.665,16.665,0,0,0,3.913,2.608l-.326.815-.38-.163a.845.845,0,0,0-.408-.082.869.869,0,0,0-.3,1.685L15.7,40.045a.87.87,0,1,0,.706-1.576l-.38-.163.326-.869a16.435,16.435,0,0,0,4.646.9v1.793H19.966a.873.873,0,1,0,.163,1.739h3.478a.87.87,0,1,0,0-1.739h-.869V38.333a16.436,16.436,0,0,0,4.646-.9l.326.869-.38.163a.87.87,0,1,0,.707,1.576L30.4,39.013a.87.87,0,0,0-.408-1.685.911.911,0,0,0-.3.082l-.38.163-.326-.815A16.664,16.664,0,0,0,32.9,34.122l1.25,1.277-.625.625a.874.874,0,0,0,1.223,1.25l2.527-2.527a.875.875,0,1,0-1.25-1.223l-.625.625L34.122,32.9a16.664,16.664,0,0,0,2.636-3.913l.815.326-.163.38a.876.876,0,0,0,1.6.707l1.032-2.364a.871.871,0,0,0-.869-1.223h-.082a.867.867,0,0,0-.625.516l-.163.38-.869-.326a16.429,16.429,0,0,0,.9-4.646h1.793v.869a.87.87,0,1,0,1.739,0V20.129a.871.871,0,0,0-.951-.9,1.021,1.021,0,0,0-.109.027.871.871,0,0,0-.679.869V21H38.333a16.428,16.428,0,0,0-.9-4.646l.869-.326.163.38a.87.87,0,1,0,1.576-.706l-1.032-2.364a.876.876,0,1,0-1.6.706l.163.38-.815.326a16.664,16.664,0,0,0-2.608-3.913l1.25-1.25.625.625a.874.874,0,0,0,1.25-1.223L34.747,6.461a.869.869,0,0,0-.625-.272.91.91,0,0,0-.163.027.864.864,0,0,0-.679.611.874.874,0,0,0,.244.883l.625.625L32.9,9.586a16.66,16.66,0,0,0-3.913-2.608l.326-.815.38.163a.876.876,0,1,0,.706-1.6L28.035,3.69a.864.864,0,1,0-.707,1.576l.38.163-.326.869a16.436,16.436,0,0,0-4.646-.9V3.608h.869a.87.87,0,1,0,0-1.739H19.884m1.956,8.668A1.739,1.739,0,1,1,20.1,12.276a1.738,1.738,0,0,1,1.739-1.739h0m6.168,3.4a1.739,1.739,0,1,1-1.739,1.739,1.738,1.738,0,0,1,1.739-1.739M15.7,13.961A1.739,1.739,0,1,1,13.961,15.7,1.738,1.738,0,0,1,15.7,13.961M12.276,20.1a1.739,1.739,0,1,1-1.739,1.739A1.738,1.738,0,0,1,12.276,20.1m9.564,0A1.739,1.739,0,1,1,20.1,21.84,1.738,1.738,0,0,1,21.84,20.1m9.591.027a1.739,1.739,0,1,1-1.739,1.739,1.738,1.738,0,0,1,1.739-1.739M15.672,26.269a1.739,1.739,0,1,1-1.739,1.739,1.738,1.738,0,0,1,1.739-1.739m12.336,0a1.739,1.739,0,1,1-1.739,1.739,1.738,1.738,0,0,1,1.739-1.739m-6.168,3.4A1.739,1.739,0,1,1,20.1,31.4a1.738,1.738,0,0,1,1.739-1.739" transform="translate(154.27 -1.869)" fill="#b77086"/>
        <text id="Việt_Nam" data-name="Việt Nam" transform="translate(0.137 31)" fill="#b77086" font-size="30" font-family="Muli-Bold, Muli" font-weight="700"><tspan x="0" y="0">Việt Nam</tspan></text>
      </g>
    </g>
  </g>
</svg>
